<svg width="1200" height="630" viewBox="0 0 1200 630" fill="none" xmlns="http://www.w3.org/2000/svg">
  <rect width="1200" height="630" fill="#020204"/>
  <circle cx="216" cy="192" r="250" fill="url(#bgGlow)" fill-opacity=".64"/>
  <g opacity=".92">
    <path d="M84 330C84 272 133 230 190 230C241 230 280 255 312 299C340 336 362 361 397 361C429 361 454 336 454 304C454 246 406 198 347 198C295 198 258 225 227 266C200 301 179 326 147 326C118 326 92 339 84 330Z" fill="none" stroke="url(#ringTone)" stroke-width="30" stroke-linecap="round" stroke-linejoin="round" filter="url(#ringBlur)" opacity=".84"/>
    <circle cx="265" cy="314" r="68" fill="#040404"/>
  </g>
  <text x="470" y="284" fill="#F4F6FF" font-size="86" font-family="Inter, Segoe UI, Arial, sans-serif" font-weight="700">BAMP</text>
  <text x="470" y="348" fill="#A7AFD2" font-size="36" font-family="Inter, Segoe UI, Arial, sans-serif">Black-hole inspired portfolio</text>
  <text x="470" y="402" fill="#FFB347" font-size="28" font-family="Inter, Segoe UI, Arial, sans-serif">AI • Engineering • Creative Systems</text>
  <defs>
    <radialGradient id="bgGlow" cx="0" cy="0" r="1" gradientUnits="userSpaceOnUse" gradientTransform="translate(216 192) rotate(90) scale(250)">
      <stop stop-color="#FF7A1A"/>
      <stop offset="1" stop-color="#FF3D00" stop-opacity="0"/>
    </radialGradient>
    <linearGradient id="ringTone" x1="90" y1="240" x2="430" y2="350" gradientUnits="userSpaceOnUse">
      <stop offset="0%" stop-color="#FFC46B"/>
      <stop offset="58%" stop-color="#FF5A00"/>
      <stop offset="100%" stop-color="#7A1F00"/>
    </linearGradient>
    <filter id="ringBlur" x="-30%" y="-30%" width="160%" height="160%">
      <feGaussianBlur stdDeviation="4.5"/>
    </filter>
  </defs>
</svg>
